<svg width="3840" height="339" viewBox="0 0 3840 339" fill="none" xmlns="http://www.w3.org/2000/svg">
<g clip-path="url(#clip0_1_2)">
<path d="M0 318.841L53.3333 321.872C106.667 324.902 213.333 330.964 320 333.752C426.667 336.662 533.333 336.177 640 336.783C746.667 337.389 853.333 339.087 960 333.995C1066.67 328.903 1173.33 317.265 1280 311.809C1386.67 306.354 1493.33 307.081 1600 308.9C1706.67 310.718 1813.33 313.628 1920 317.628C2026.67 321.629 2133.33 326.963 2240 329.994C2346.67 333.025 2453.33 333.752 2560 328.782C2666.67 323.69 2773.33 312.779 2880 312.779C2986.67 312.779 3093.33 323.69 3200 330.722C3306.67 337.874 3413.33 341.026 3520 337.632C3626.67 334.237 3733.33 324.054 3786.67 319.083L3840 313.992V0H3786.67C3733.33 0 3626.67 0 3520 0C3413.33 0 3306.67 0 3200 0C3093.33 0 2986.67 0 2880 0C2773.33 0 2666.67 0 2560 0C2453.33 0 2346.67 0 2240 0C2133.33 0 2026.67 0 1920 0C1813.33 0 1706.67 0 1600 0C1493.33 0 1386.67 0 1280 0C1173.33 0 1066.67 0 960 0C853.333 0 746.667 0 640 0C533.333 0 426.667 0 320 0C213.333 0 106.667 0 53.3333 0H0V318.841Z" fill="#E40303"/>
<path d="M0 282.436L53.3333 281.466C106.667 280.375 213.333 278.436 320 277.951C426.667 277.587 533.333 278.8 640 281.224C746.667 283.648 853.333 287.285 960 285.709C1066.67 284.012 1173.33 277.224 1280 275.163C1386.67 273.102 1493.33 276.012 1600 272.133C1706.67 268.254 1813.33 257.829 1920 256.011C2026.67 254.193 2133.33 260.981 2240 269.466C2346.67 277.951 2453.33 288.133 2560 286.921C2666.67 285.709 2773.33 273.102 2880 269.708C2986.67 266.314 3093.33 271.89 3200 275.527C3306.67 279.163 3413.33 280.86 3520 276.133C3626.67 271.527 3733.33 260.617 3786.67 255.162L3840 249.708V0H3786.67C3733.33 0 3626.67 0 3520 0C3413.33 0 3306.67 0 3200 0C3093.33 0 2986.67 0 2880 0C2773.33 0 2666.67 0 2560 0C2453.33 0 2346.67 0 2240 0C2133.33 0 2026.67 0 1920 0C1813.33 0 1706.67 0 1600 0C1493.33 0 1386.67 0 1280 0C1173.33 0 1066.67 0 960 0C853.333 0 746.667 0 640 0C533.333 0 426.667 0 320 0C213.333 0 106.667 0 53.3333 0H0V282.436Z" fill="#FF8C00"/>
<path d="M0 203.535L53.3333 204.504C106.667 205.595 213.333 207.533 320 212.864C426.667 218.073 533.333 226.554 640 228.129C746.667 229.825 853.333 224.494 960 218.921C1066.67 213.227 1173.33 207.169 1280 206.806C1386.67 206.321 1493.33 211.652 1600 218.073C1706.67 224.494 1813.33 232.248 1920 233.217C2026.67 234.186 2133.33 228.613 2240 226.19C2346.67 223.767 2453.33 224.494 2560 227.402C2666.67 230.188 2773.33 235.034 2880 231.158C2986.67 227.402 3093.33 214.802 3200 210.441C3306.67 205.958 3413.33 209.593 3520 216.498C3626.67 223.283 3733.33 233.459 3786.67 238.427L3840 243.515V0H3786.67C3733.33 0 3626.67 0 3520 0C3413.33 0 3306.67 0 3200 0C3093.33 0 2986.67 0 2880 0C2773.33 0 2666.67 0 2560 0C2453.33 0 2346.67 0 2240 0C2133.33 0 2026.67 0 1920 0C1813.33 0 1706.67 0 1600 0C1493.33 0 1386.67 0 1280 0C1173.33 0 1066.67 0 960 0C853.333 0 746.667 0 640 0C533.333 0 426.667 0 320 0C213.333 0 106.667 0 53.3333 0H0V203.535Z" fill="#FFED00"/>
<path d="M0 156.329L53.3333 163.236C106.667 170.022 213.333 183.838 320 185.171C426.667 186.625 533.333 175.718 640 175.112C746.667 174.506 853.333 184.201 960 183.959C1066.67 183.838 1173.33 173.658 1280 170.265C1386.67 166.872 1493.33 170.022 1600 175.355C1706.67 180.566 1813.33 187.837 1920 192.684C2026.67 197.531 2133.33 199.955 2240 195.108C2346.67 190.26 2453.33 178.142 2560 173.658C2666.67 169.295 2773.33 172.446 2880 176.324C2986.67 180.202 3093.33 184.565 3200 188.2C3306.67 191.836 3413.33 194.744 3520 189.291C3626.67 183.838 3733.33 170.022 3786.67 163.236L3840 156.329V0H3786.67C3733.33 0 3626.67 0 3520 0C3413.33 0 3306.67 0 3200 0C3093.33 0 2986.67 0 2880 0C2773.33 0 2666.67 0 2560 0C2453.33 0 2346.67 0 2240 0C2133.33 0 2026.67 0 1920 0C1813.33 0 1706.67 0 1600 0C1493.33 0 1386.67 0 1280 0C1173.33 0 1066.67 0 960 0C853.333 0 746.667 0 640 0C533.333 0 426.667 0 320 0C213.333 0 106.667 0 53.3333 0H0V156.329Z" fill="#008026"/>
<path d="M0 110.522L53.3333 118.781C106.667 127.161 213.333 143.679 320 149.387C426.667 155.095 533.333 149.751 640 143.557C746.667 137.242 853.333 129.954 960 132.626C1066.67 135.177 1173.33 147.808 1280 147.929C1386.67 148.172 1493.33 136.027 1600 128.983C1706.67 121.817 1813.33 119.874 1920 120.238C2026.67 120.603 2133.33 123.517 2240 124.732C2346.67 125.946 2453.33 125.461 2560 130.319C2666.67 135.177 2773.33 145.379 2880 143.679C2986.67 142.1 3093.33 128.74 3200 123.032C3306.67 117.445 3413.33 119.388 3520 125.946C3626.67 132.383 3733.33 143.314 3786.67 148.78L3840 154.245V0H3786.67C3733.33 0 3626.67 0 3520 0C3413.33 0 3306.67 0 3200 0C3093.33 0 2986.67 0 2880 0C2773.33 0 2666.67 0 2560 0C2453.33 0 2346.67 0 2240 0C2133.33 0 2026.67 0 1920 0C1813.33 0 1706.67 0 1600 0C1493.33 0 1386.67 0 1280 0C1173.33 0 1066.67 0 960 0C853.333 0 746.667 0 640 0C533.333 0 426.667 0 320 0C213.333 0 106.667 0 53.3333 0H0V110.522Z" fill="#24408E"/>
<path d="M0 77.749L53.3333 75.9268C106.667 74.1045 213.333 70.46 320 74.7119C426.667 78.9638 533.333 91.1121 640 94.7566C746.667 98.4011 853.333 93.5418 960 92.5699C1066.67 91.4766 1173.33 94.3922 1280 97.1863C1386.67 99.9804 1493.33 102.896 1600 101.195C1706.67 99.6159 1813.33 93.5418 1920 90.5047C2026.67 87.4676 2133.33 87.4676 2240 88.0751C2346.67 88.6825 2453.33 89.8973 2560 86.0099C2666.67 82.2439 2773.33 73.2541 2880 70.8245C2986.67 68.3948 3093.33 72.5253 3200 74.7119C3306.67 76.8986 3413.33 77.3846 3520 78.7209C3626.67 80.1787 3733.33 82.6083 3786.67 83.8232L3840 85.038V0H3786.67C3733.33 0 3626.67 0 3520 0C3413.33 0 3306.67 0 3200 0C3093.33 0 2986.67 0 2880 0C2773.33 0 2666.67 0 2560 0C2453.33 0 2346.67 0 2240 0C2133.33 0 2026.67 0 1920 0C1813.33 0 1706.67 0 1600 0C1493.33 0 1386.67 0 1280 0C1173.33 0 1066.67 0 960 0C853.333 0 746.667 0 640 0C533.333 0 426.667 0 320 0C213.333 0 106.667 0 53.3333 0H0V77.749Z" fill="#4B0082"/>
<path d="M0 43.6795L53.3333 44.5288C106.667 45.2568 213.333 46.9555 320 44.8928C426.667 42.8302 533.333 37.2489 640 39.0689C746.667 40.8889 853.333 50.1101 960 50.5954C1066.67 50.9594 1173.33 42.4662 1280 37.9769C1386.67 33.609 1493.33 33.1236 1600 37.8556C1706.67 42.4662 1813.33 52.1728 1920 57.2687C2026.67 62.2433 2133.33 62.7286 2240 59.6953C2346.67 56.662 2453.33 50.1101 2560 47.3195C2666.67 44.5288 2773.33 45.2568 2880 42.7089C2986.67 40.0396 3093.33 33.973 3200 30.0903C3306.67 26.329 3413.33 24.6304 3520 23.2957C3626.67 21.8398 3733.33 20.6264 3786.67 20.0198L3840 19.4131V0H3786.67C3733.33 0 3626.67 0 3520 0C3413.33 0 3306.67 0 3200 0C3093.33 0 2986.67 0 2880 0C2773.33 0 2666.67 0 2560 0C2453.33 0 2346.67 0 2240 0C2133.33 0 2026.67 0 1920 0C1813.33 0 1706.67 0 1600 0C1493.33 0 1386.67 0 1280 0C1173.33 0 1066.67 0 960 0C853.333 0 746.667 0 640 0C533.333 0 426.667 0 320 0C213.333 0 106.667 0 53.3333 0H0V43.6795Z" fill="#4D0BB7"/>
</g>
<defs>
<clipPath id="clip0_1_2">
<rect width="3840" height="339" fill="white"/>
</clipPath>
</defs>
</svg>
