<svg width="31" height="30" viewBox="0 0 31 30" fill="none" xmlns="http://www.w3.org/2000/svg">
<path d="M17.7214 12.4732C17.1565 12.7128 16.0088 12.3716 15.8193 11.6178C15.6076 10.0507 16.1392 8.7144 17.192 7.21965C17.3235 6.342 17.4894 5.78206 17.6904 5.54403C17.6381 4.14048 17.8734 3.0469 18.3968 2.26733C20.1635 0.566439 21.3669 1.82713 21.1459 3.55707C20.954 4.45483 20.413 5.62432 20.0746 6.22097C19.8729 6.88698 19.6227 7.70438 19.3325 8.04486C19.3325 10.4517 18.4514 12.1109 17.7214 12.4732Z" fill="#3700BB" stroke="black" stroke-width="0.0859599" stroke-miterlimit="3" stroke-linecap="square"/>
<path d="M11.2878 12.6203C11.7079 12.8682 12.2646 12.8077 12.7996 12.4575C13.2752 11.9075 13.7586 9.58501 12.9942 8.00111C12.9867 7.48062 12.981 6.16028 12.8569 5.92458C13.4886 4.59822 13.2228 4.13352 13.2008 3.40303C13.1351 2.04271 11.2177 0.692285 10.536 3.57495C10.4801 3.99581 10.4059 4.75466 10.7653 6.12512C10.622 6.69822 10.7365 7.3859 10.9315 8.10538C10.0354 9.87985 10.8461 12.4729 11.2878 12.6203Z" fill="#3700BB" stroke="black" stroke-width="0.0859599" stroke-miterlimit="3" stroke-linecap="square"/>
<path d="M23.5767 25.8836C22.9005 26.6262 22.5426 26.9032 21.961 27.7442C20.441 29.0898 16.7167 29.5815 16.2536 29.6057C15.8732 29.6164 14.7747 29.4577 13.343 29.1535C12.7363 28.9338 11.9617 28.4936 11.7383 28.3074C11.3095 28.3941 10.011 28.2491 9.53365 28.1321C8.37078 27.8739 7.4603 27.3353 6.80305 26.5208C6.34076 25.6085 6.19806 23.673 6.376 20.7181C6.16514 19.0706 6.2413 17.4468 6.60543 15.8505C6.30285 15.6593 5.55379 14.4509 5.29591 13.9065C4.49365 13.1329 4.37898 12.6171 3.97789 11.5856C3.47219 10.683 2.74462 9.24413 3.08958 8.83488C3.29803 8.35376 5.13353 6.92321 6.24147 10.726C6.99723 11.2049 7.18737 11.4976 7.84608 12.3879C8.20892 12.9746 8.36184 13.1902 8.99219 14.1071C9.33603 14.5942 9.41442 14.7569 9.84663 14.8369C13.1263 13.8823 14.1058 13.4422 15.1227 13.7025C16.3063 13.8724 17.4251 14.3439 18.347 15.341C18.7046 15.4388 18.835 15.5146 19.0903 15.5531C19.2769 15.5248 19.4917 15.5748 19.8246 15.6844C20.4677 13.949 21.2276 12.6593 22.1054 11.8196C22.2997 11.1916 22.6134 10.6583 23.0474 10.2232C23.571 8.9841 24.0641 7.76467 24.8075 7.24066C26.5639 6.40797 27.3448 7.96384 27.1644 8.46155C27.091 9.09791 25.9332 11.4088 25.3579 11.5867C25.1882 12.2795 24.9579 12.8599 24.6679 13.3318C24.091 14.7786 23.2285 15.8544 22.0814 16.563C21.9419 16.6822 21.5534 16.6027 20.9169 16.3289C21.2691 16.5745 21.5412 16.8473 21.7343 17.1511C21.7236 17.4475 21.8745 17.572 21.7234 17.9376C21.6474 18.4527 21.3131 19.981 20.3962 20.5254C20.2883 20.6471 19.2074 20.6868 19.1068 20.812C19.116 20.9791 20.2497 20.8248 20.3103 20.9839C20.3389 21.5856 20.1355 22.3471 20.493 22.8377C20.5104 23.043 20.8757 23.0938 21.0671 23.1765C21.2528 23.2671 21.4283 23.2877 21.5947 23.2424C21.9937 23.1475 22.3565 22.8506 22.8694 22.522C23.6696 20.9741 26.0692 20.4267 26.619 20.4869C28.4378 20.9561 28.9147 22.0803 27.5619 23.592C26.437 24.5818 25.5678 25.125 24.9554 25.2256C24.465 25.4538 24.3176 25.6093 23.5767 25.8836Z" fill="#3700BB" stroke="black" stroke-width="0.0859599" stroke-miterlimit="3" stroke-linecap="square"/>
</svg>
