<svg width="82" height="22" viewBox="0 0 82 22" fill="none" xmlns="http://www.w3.org/2000/svg">
<g fill="#A87BFF">
<path d="M6.5 9L7.95934 13.4914H12.6819L8.86126 16.2672L10.3206 20.7586L6.5 17.9828L2.6794 20.7586L4.13874 16.2672L0.318133 13.4914H5.04066L6.5 9Z"/>
<path d="M75.5 9L76.9593 13.4914H81.6819L77.8613 16.2672L79.3206 20.7586L75.5 17.9828L71.6794 20.7586L73.1387 16.2672L69.3181 13.4914H74.0407L75.5 9Z"/>
<path d="M22 3L24.0206 9.21885H30.5595L25.2694 13.0623L27.2901 19.2812L22 15.4377L16.7099 19.2812L18.7306 13.0623L13.4405 9.21885H19.9794L22 3Z"/>
<path d="M60 3L62.0206 9.21885H68.5595L63.2694 13.0623L65.2901 19.2812L60 15.4377L54.7099 19.2812L56.7306 13.0623L51.4405 9.21885H57.9794L60 3Z"/>
<path d="M41 0L43.2451 6.90983H50.5106L44.6327 11.1803L46.8779 18.0902L41 13.8197L35.1221 18.0902L37.3673 11.1803L31.4894 6.90983H38.7549L41 0Z"/>
</g>
</svg>
