<svg width="31" height="30" viewBox="0 0 31 30" fill="none" xmlns="http://www.w3.org/2000/svg">
<path d="M13.5909 12.4732C14.1558 12.7128 15.3035 12.3716 15.493 11.6178C15.7047 10.0507 15.1731 8.7144 14.1204 7.21965C13.9888 6.342 13.8229 5.78206 13.622 5.54403C13.6742 4.14048 13.439 3.0469 12.9155 2.26733C11.1488 0.566439 9.94537 1.82713 10.1664 3.55707C10.3583 4.45483 10.8994 5.62432 11.2377 6.22097C11.4394 6.88698 11.6896 7.70438 11.9798 8.04486C11.9798 10.4517 12.861 12.1109 13.5909 12.4732Z" fill="#3700BB" stroke="black" stroke-width="0.0859599" stroke-miterlimit="3" stroke-linecap="square"/>
<path d="M20.0245 12.6203C19.6044 12.8682 19.0478 12.8077 18.5127 12.4575C18.0371 11.9075 17.5537 9.58501 18.3181 8.00111C18.3256 7.48062 18.3313 6.16028 18.4554 5.92458C17.8237 4.59822 18.0895 4.13352 18.1116 3.40303C18.1772 2.04271 20.0947 0.692285 20.7763 3.57495C20.8322 3.99581 20.9064 4.75466 20.5471 6.12512C20.6904 6.69822 20.5758 7.3859 20.3808 8.10538C21.277 9.87985 20.4662 12.4729 20.0245 12.6203Z" fill="#3700BB" stroke="black" stroke-width="0.0859599" stroke-miterlimit="3" stroke-linecap="square"/>
<path d="M7.825 24.807C8.50125 25.5497 8.85919 25.8267 9.44071 26.6677C10.9607 28.0133 14.685 28.5049 15.1481 28.5292C15.5286 28.5399 16.627 28.3812 18.0588 28.0769C18.6655 27.8573 19.4401 27.4171 19.6635 27.2308C20.0923 27.3176 21.3908 27.1726 21.8681 27.0556C23.031 26.7973 23.9415 26.2588 24.5987 25.4443C25.061 24.532 25.2037 22.5965 25.0258 19.6416C25.2366 17.9941 25.1604 16.3702 24.7963 14.774C25.0989 14.5828 25.848 13.3744 26.1058 12.83C26.9081 12.0563 27.0228 11.5406 27.4239 10.5091C27.9296 9.60649 28.6571 8.16761 28.3122 7.75835C28.1037 7.27723 26.2682 5.84669 25.1603 9.64947C24.4045 10.1284 24.2144 10.421 23.5557 11.3113C23.1928 11.8981 23.0399 12.1137 22.4096 13.0305C22.0657 13.5177 21.9873 13.6804 21.5551 13.7604C18.2754 12.8057 17.296 12.3657 16.2791 12.626C15.0955 12.7959 13.9766 13.2673 13.0547 14.2645C12.6971 14.3623 12.5667 14.438 12.3114 14.4765C12.1248 14.4483 11.9101 14.4983 11.5772 14.6079C10.934 12.8724 10.1741 11.5828 9.29638 10.7431C9.10202 10.1151 8.78836 9.58173 8.35435 9.14669C7.83076 7.90758 7.3377 6.68815 6.59423 6.16414C4.8379 5.33145 4.05695 6.88732 4.23738 7.38503C4.31079 8.02139 5.4685 10.3322 6.04383 10.5102C6.21352 11.203 6.44389 11.7833 6.73383 12.2553C7.31079 13.702 8.17323 14.7778 9.32036 15.4865C9.45987 15.6056 9.84833 15.5262 10.4849 15.2524C10.1327 15.498 9.86054 15.7708 9.66747 16.0746C9.67813 16.371 9.52727 16.4955 9.67839 16.8611C9.75437 17.3761 10.0887 18.9045 11.0055 19.4489C11.1134 19.5706 12.1943 19.6102 12.2949 19.7355C12.2857 19.9026 11.1521 19.7483 11.0915 19.9074C11.0629 20.5091 11.2662 21.2706 10.9087 21.7611C10.8914 21.9665 10.526 22.0173 10.3346 22.1C10.1489 22.1906 9.97349 22.2112 9.80707 22.1658C9.40804 22.0709 9.04529 21.7741 8.53237 21.4455C7.73217 19.8976 5.33251 19.3502 4.78271 19.4104C2.96397 19.8796 2.48707 21.0037 3.83982 22.5155C4.96477 23.5053 5.83392 24.0484 6.44638 24.1491C6.93678 24.3773 7.08412 24.5327 7.825 24.807Z" fill="#3700BB" stroke="black" stroke-width="0.0859599" stroke-miterlimit="3" stroke-linecap="square"/>
</svg>
